<svg xmlns="http://www.w3.org/2000/svg" width="64" height="64"><g fill="none" fill-rule="evenodd" style="transform: translate(25%, 30%)"><path stroke="#656F7B" d="M7.25 27.98l3.48-3.77M10.73 27.98L7.25 24.2"/><path stroke="#656F7B" d="M6.5 31.5h51" stroke-linecap="square"/><path stroke="#D34A49" d="M15.33 22s11.2 19.53 2.7 19.53-10.17-14.5 9.48-16.85c0 0-6.3.94-3.97 4.12.84 1.33 3.6.58 3.6-4.43 0 0-.3 7.16 3.26 2.46 3.54-4.7 2.23.53 2.23.53s4.4-6.43 3.1.14c0 0 2.73-4.56 3.26.8 3.97 1.62 4.4-4.53 2.1-2.68-2.3 1.85-.67 3.35 2.38 2.36 3.05-1 7.16-2.87 3.38 1.66 0 0 1.27-1.85 7.47-1.08 1.24 0 1.54-2.3.26-1.45"/></g></svg>
