<?xml version="1.0" standalone="no"?>
<!DOCTYPE svg PUBLIC "-//W3C//DTD SVG 20010904//EN"
 "http://www.w3.org/TR/2001/REC-SVG-20010904/DTD/svg10.dtd">
<svg version="1.0" xmlns="http://www.w3.org/2000/svg"
 width="700.000000pt" height="700.000000pt" viewBox="0 0 700.000000 700.000000"
 preserveAspectRatio="xMidYMid meet">
<metadata>
Created by potrace 1.11, written by Peter Selinger 2001-2013
</metadata>
<g transform="translate(0.000000,700.000000) scale(0.100000,-0.100000)"
fill="#000000" stroke="none">
<path d="M2420 6248 c0 -32 2 -34 73 -55 178 -54 412 -240 531 -423 89 -137
119 -234 120 -385 1 -89 -4 -124 -22 -185 -14 -44 -144 -309 -317 -645 -161
-313 -498 -977 -750 -1475 -877 -1734 -911 -1801 -965 -1866 -96 -117 -283
-250 -507 -361 -131 -65 -133 -66 -133 -99 l0 -34 900 0 900 0 0 38 c-1 34 -5
40 -57 72 -75 47 -150 132 -187 210 -38 81 -43 185 -12 265 11 28 205 435 432
905 l413 855 376 3 376 2 -3 -902 c-3 -896 -3 -903 -24 -960 -53 -138 -190
-275 -381 -380 -69 -37 -73 -42 -73 -74 l0 -34 875 0 875 0 0 34 c0 32 -4 36
-77 76 -195 104 -335 247 -384 388 -18 53 -19 97 -19 953 l0 897 158 6 c626
25 988 96 1317 258 294 146 488 362 594 658 64 179 89 338 98 605 9 288 -17
493 -91 712 -179 531 -655 839 -1446 937 -251 31 -442 36 -1511 36 l-1079 0 0
-32z m2272 -72 c454 -104 776 -369 937 -772 88 -219 124 -433 124 -734 -1
-326 -47 -566 -154 -799 -194 -420 -606 -686 -1126 -726 l-93 -8 0 1538 0
1538 103 -6 c56 -4 150 -18 209 -31z m-1102 -2336 l0 -700 -350 0 c-192 0
-350 2 -350 5 0 7 694 1395 697 1395 2 0 3 -315 3 -700z"/>
</g>
</svg>
