<svg version="1" xmlns="http://www.w3.org/2000/svg" width="1365.333" height="1365.333" viewBox="0 0 1024.000000 1024.000000"><path d="M113.5.7C92.9 3.4 73.2 10.8 56 22.3 46.4 28.7 28.7 46.4 22.3 56 12.8 70.2 6.1 86 2.4 103 .6 111.2.5 124.7.5 512c0 383.6.1 400.8 1.8 408.8 11.5 52 48.9 89.4 100.7 100.8 8.2 1.8 21.7 1.9 409 1.9 386.6 0 400.8-.1 409-1.9 12.4-2.7 22.3-6.2 33.4-11.9 34.7-17.7 58.5-49.2 67.3-88.9 1.7-8 1.8-25.2 1.8-408.8 0-386.6-.1-400.8-1.9-409-9.8-44.8-40.5-80.2-82.6-95.5-4.1-1.4-11.3-3.6-16-4.8L914.5.6l-399-.2C296 .3 115.2.5 113.5.7zM348 279.6c20.2 3.4 37.7 10.1 52.7 20 11.4 7.5 27.5 23.6 33.7 33.6 9.2 15 15.3 33.4 17.6 53.3.6 5.5 1 49.3 1 114 0 101-.1 105.2-1.9 109.2-1.2 2.6-3.5 5.2-6.2 7-4.2 2.8-4.3 2.8-21.4 2.8-16.9 0-17.2 0-21.2-2.7-6.9-4.6-8.3-8.9-8.3-25.9v-14.4l-2.9 5c-16.8 29.2-77.4 49.6-128.6 43.4-47.2-5.8-81.9-33.5-90-71.9-1.7-8.2-2-26.6-.4-36 1.5-9.5 6.3-23.2 11.1-31.4 5.5-9.4 20.7-24.6 32.1-32.1 16.7-10.8 39.4-20.4 61.6-25.9 14.2-3.6 21.4-4.9 69.1-12.6 23.9-3.8 44.5-7.2 45.8-7.5 2.1-.5 2.2-1 2.2-9.3-.1-19.2-5.6-32.8-18-44.6-14.5-13.5-29.5-19.3-53-20.3-31.2-1.3-48.9 6.3-67.7 29.1-4.2 5-9.4 10.2-11.7 11.6-3.8 2.3-5.2 2.5-19.4 2.9-17.6.4-22-.7-27.1-6.4-3.7-4.2-4.6-8.8-3.2-15.3 2.8-13.1 9.1-24.3 20.5-36.1 21.2-22 53.6-37.1 88.2-41.1 10.5-1.2 33.6-.4 45.4 1.6zm373.1-1.6c50.4 5.1 90.7 33.3 113.7 79.5C848 383.8 853 410 853 452c0 42.1-5 68.1-18.2 94.5-12.2 24.6-27.8 42.5-49.2 56.7-22.2 14.7-44.1 21.4-73.6 22.5-42 1.6-72.6-9.1-97.2-33.8l-8.8-8.8v72.6c0 70.6-.1 72.8-2 76.8-1.1 2.3-3.5 5.2-5.2 6.6-3.1 2.3-4.1 2.4-20.2 2.7-9.3.2-18 .1-19.3-.3-3.8-.9-10.2-7.3-11.3-11.3-.6-2.5-1-76-1-217.7 0-205.9.1-214.2 1.9-218 2.1-4.6 5.4-7.9 9.4-9.4 1.6-.6 9.9-1.1 18.8-1.1 17.3 0 19.1.4 24.1 5.7 4 4.3 4.8 7.4 4.8 20v11.5l5.1-6.1c22.7-27.2 65.3-41.6 110-37.1zM488.7 685.6c4.4 3.3 5.2 7.1 5.2 26.9.1 17.6.2 18.1 2.6 21.7 1.4 2.1 3.5 4.3 4.7 4.9 1.6.9 1.8 1.3.7 2-.8.5-69.9.9-157.9.9-151.6 0-156.6-.1-160.7-1.9-2.6-1.2-5.2-3.5-7-6.2-2.7-4-2.8-4.9-3.2-17.7-.4-18 .2-21.4 4.7-26.4 2-2.3 5.1-4.7 6.7-5.5 2.5-1.1 28.3-1.3 152.2-1.1l149.2.3 2.8 2.1zm355 0c1.9.9 4.6 3.3 6.1 5.2l2.7 3.5v37.4l-2.7 3.5c-5.5 7.2 1 6.8-103.1 6.8-92.9 0-98.7-.2-93.4-3.2.9-.4 2.6-2.3 3.9-4.1 2.2-3 2.3-4.3 2.8-24l.5-20.9 3.3-2.9 3.2-2.9h86.6c78.2 0 86.9.2 90.1 1.6z"/><path d="M346.5 466.5c-55 9-66.3 11.8-84.5 21-15.4 7.8-23.4 14.7-28.8 25-2.1 4-2.7 6.8-3 14.2-.4 8.6-.2 9.6 2.6 15.8 5.9 12.6 17.9 21.9 32.7 25.4 14 3.4 38.9 3 55.1-.9 36.4-8.6 62.4-33.6 71-68 .9-4 1.8-13 2.1-23.3.5-15.9.5-16.7-1.3-16.6-1.1.1-21.7 3.4-45.9 7.4zM682.5 334c-30 4.7-56.1 24.5-68.2 51.9-5.2 11.7-7.4 23.2-8.2 44.1-1 24 .1 55.6 2.4 66.5 10.6 50.8 47.7 77.6 101.5 73.4 12.1-.9 23-3.8 32.4-8.5 9.5-4.8 15-8.9 23.4-17.8 14.8-15.6 23.9-37 27.2-64 1.4-11.7 1.4-44.6-.1-56.6-3.5-29.3-16.5-55.5-35.1-70.9-7.9-6.5-21.8-13.5-32.3-16.2-9.2-2.4-33.1-3.4-43-1.9z"/></svg>